<?xml version="1.0" standalone="no"?>
<!DOCTYPE svg PUBLIC "-//W3C//DTD SVG 20010904//EN"
 "http://www.w3.org/TR/2001/REC-SVG-20010904/DTD/svg10.dtd">
<svg version="1.0" xmlns="http://www.w3.org/2000/svg"
 width="770.000000pt" height="766.000000pt" viewBox="0 0 770.000000 766.000000"
 preserveAspectRatio="xMidYMid meet">

<g transform="translate(0.000000,766.000000) scale(0.100000,-0.100000)"
fill="#000000" stroke="none">
<path d="M575 6813 c-269 -467 -498 -863 -508 -880 l-19 -33 270 0 269 0 316
443 c315 441 403 549 496 609 54 34 111 38 140 9 10 -10 33 -63 51 -117 69
-208 155 -352 294 -490 50 -49 120 -109 156 -132 71 -46 192 -96 255 -106 38
-5 37 -4 -23 24 -83 39 -191 110 -248 162 l-47 43 99 5 c651 33 1246 -211
1879 -771 149 -131 500 -489 667 -680 134 -152 140 -157 260 -229 436 -259
824 -549 1152 -860 98 -94 266 -278 266 -293 0 -5 -31 -40 -69 -77 -80 -79
-201 -144 -298 -161 l-62 -11 -11 -56 c-20 -99 -50 -183 -115 -317 -106 -216
-230 -390 -384 -538 -75 -72 -220 -177 -244 -177 -6 0 -7 -18 -3 -48 8 -67
-10 -254 -34 -340 -40 -142 -108 -239 -205 -290 -46 -25 -60 -27 -165 -27
l-115 0 -240 77 c-991 317 -2501 760 -3031 889 -225 54 -286 74 -384 125 -169
87 -272 200 -327 359 -25 73 -27 93 -28 227 0 82 -1 148 -3 148 -2 0 -14 -25
-28 -56 -121 -275 -34 -553 229 -728 151 -100 232 -127 652 -221 310 -68 683
-160 719 -176 13 -6 -48 -8 -168 -5 -503 12 -1086 -33 -1466 -114 -226 -48
-512 -139 -512 -163 0 -5 238 -420 528 -923 l528 -914 2214 2 2213 3 1104
1912 1105 1913 -1104 1912 -1105 1913 -2214 3 -2213 2 -489 -847z"/>
<path d="M690 5353 c-11 -52 -11 -58 6 -71 27 -19 474 -239 634 -310 237 -106
344 -152 347 -149 1 2 -48 32 -110 67 -260 147 -679 397 -766 456 -51 35 -95
64 -96 64 -2 0 -9 -26 -15 -57z"/>
<path d="M3143 5338 c8 -22 368 -602 380 -614 16 -15 687 -238 694 -230 9 8
-67 130 -151 243 -95 127 -242 276 -361 366 -109 82 -317 187 -439 222 -99 28
-131 31 -123 13z"/>
<path d="M622 4858 c-6 -24 -13 -62 -17 -85 l-6 -41 78 -41 c170 -90 438 -206
748 -326 207 -80 588 -215 592 -211 2 2 -243 128 -545 280 -532 268 -739 381
-802 439 -16 15 -32 27 -34 27 -2 0 -8 -19 -14 -42z"/>
<path d="M556 4412 c-3 -20 -9 -96 -12 -167 l-7 -130 108 -58 c214 -114 582
-280 1005 -453 182 -74 750 -294 759 -294 3 0 -148 81 -337 180 -974 510
-1356 748 -1482 922 l-27 38 -7 -38z"/>
</g>
</svg>
